<?xml version="1.0" encoding="UTF-8" standalone="no"?>
<svg
   xmlns:dc="http://purl.org/dc/elements/1.1/"
   xmlns:cc="http://creativecommons.org/ns#"
   xmlns:rdf="http://www.w3.org/1999/02/22-rdf-syntax-ns#"
   xmlns:svg="http://www.w3.org/2000/svg"
   xmlns="http://www.w3.org/2000/svg"
   xmlns:sodipodi="http://sodipodi.sourceforge.net/DTD/sodipodi-0.dtd"
   xmlns:inkscape="http://www.inkscape.org/namespaces/inkscape"
   viewBox="0 0 226.39576 93.075463"
   height="93.075462"
   width="226.39575"
   xml:space="preserve"
   version="1.1"
   id="svg2"
   inkscape:version="0.91 r13725"
   sodipodi:docname="OACISロゴ0.svg"><sodipodi:namedview
     pagecolor="#ffffff"
     bordercolor="#666666"
     borderopacity="1"
     objecttolerance="10"
     gridtolerance="10"
     guidetolerance="10"
     inkscape:pageopacity="0"
     inkscape:pageshadow="2"
     inkscape:window-width="1666"
     inkscape:window-height="847"
     id="namedview3481"
     showgrid="false"
     fit-margin-top="0"
     fit-margin-left="0"
     fit-margin-right="0"
     fit-margin-bottom="0"
     inkscape:zoom="2.8001429"
     inkscape:cx="92.085844"
     inkscape:cy="61.902159"
     inkscape:window-x="65"
     inkscape:window-y="34"
     inkscape:window-maximized="0"
     inkscape:current-layer="svg2" /><metadata
     id="metadata8"><rdf:RDF><cc:Work
         rdf:about=""><dc:format>image/svg+xml</dc:format><dc:type
           rdf:resource="http://purl.org/dc/dcmitype/StillImage" /><dc:title></dc:title></cc:Work></rdf:RDF></metadata><defs
     id="defs6"><clipPath
       id="clipPath16"
       clipPathUnits="userSpaceOnUse"><path
         id="path18"
         d="m 0,612.288 858.898,0 L 858.898,0 0,0 0,612.288 Z"
         inkscape:connector-curvature="0" /></clipPath></defs><g
     transform="matrix(1.25,0,0,-1.25,0,93.075475)"
     id="g10"><g
       id="g12"
       transform="translate(-314.3413,-265.11649)"><g
         clip-path="url(#clipPath16)"
         id="g14"><g
           transform="translate(344.6743,271.1765)"
           id="g20"><path
             id="path22"
             style="fill:#ffffff;fill-opacity:1;fill-rule:nonzero;stroke:none"
             d="m 0,0 c 2.616,1.464 4.665,3.495 6.148,6.091 1.483,2.595 2.226,5.494 2.226,8.695 0,3.2 -0.743,6.1 -2.226,8.696 -1.483,2.595 -3.532,4.626 -6.148,6.09 -2.616,1.464 -5.544,2.196 -8.784,2.196 -3.241,0 -6.178,-0.732 -8.813,-2.196 -2.634,-1.464 -4.704,-3.495 -6.207,-6.09 -1.503,-2.596 -2.254,-5.496 -2.254,-8.696 0,-3.201 0.751,-6.1 2.254,-8.695 1.503,-2.596 3.573,-4.627 6.207,-6.091 2.635,-1.464 5.572,-2.196 8.813,-2.196 3.24,0 6.168,0.732 8.784,2.196 m -19.821,-3.337 c -3.3,1.815 -5.877,4.305 -7.729,7.466 -1.856,3.162 -2.783,6.714 -2.783,10.657 0,3.943 0.927,7.495 2.783,10.658 1.852,3.162 4.429,5.651 7.729,7.465 3.298,1.817 6.977,2.724 11.037,2.724 4.061,0 7.721,-0.898 10.98,-2.694 3.259,-1.796 5.827,-4.285 7.7,-7.466 1.874,-3.181 2.811,-6.744 2.811,-10.687 C 12.707,10.843 11.77,7.28 9.896,4.1 8.023,0.918 5.455,-1.57 2.196,-3.365 -1.063,-5.163 -4.723,-6.06 -8.784,-6.06 c -4.06,0 -7.739,0.908 -11.037,2.723"
             inkscape:connector-curvature="0" /></g><g
           transform="translate(391.2266,279.9314)"
           id="g24"><path
             id="path26"
             style="fill:#ffffff;fill-opacity:1;fill-rule:nonzero;stroke:none"
             d="M 0,0 -9.836,22.017 -19.674,0 0,0 Z m 1.581,-3.513 -22.836,0 -4.92,-10.951 -4.509,0 18.739,40.99 4.275,0 18.738,-40.99 -4.568,0 -4.919,10.951 z"
             inkscape:connector-curvature="0" /></g><g
           transform="translate(415.9092,267.8112)"
           id="g28"><path
             id="path30"
             style="fill:#ffffff;fill-opacity:1;fill-rule:nonzero;stroke:none"
             d="m 0,0 c -3.261,1.795 -5.818,4.283 -7.67,7.465 -1.856,3.181 -2.783,6.743 -2.783,10.686 0,3.944 0.927,7.506 2.783,10.687 1.852,3.182 4.42,5.67 7.698,7.467 3.281,1.795 6.949,2.694 11.01,2.694 3.045,0 5.856,-0.509 8.432,-1.523 2.577,-1.015 4.762,-2.498 6.557,-4.45 l -2.75,-2.753 c -3.203,3.241 -7.244,4.86 -12.123,4.86 -3.239,0 -6.187,-0.742 -8.841,-2.226 -2.655,-1.483 -4.734,-3.512 -6.237,-6.09 -1.503,-2.576 -2.254,-5.465 -2.254,-8.666 0,-3.201 0.751,-6.089 2.254,-8.667 1.503,-2.576 3.582,-4.605 6.237,-6.088 2.654,-1.484 5.602,-2.227 8.841,-2.227 4.92,0 8.959,1.642 12.123,4.92 l 2.75,-2.752 C 24.232,1.384 22.036,-0.108 19.439,-1.144 16.844,-2.179 14.024,-2.694 10.979,-2.694 6.919,-2.694 3.259,-1.798 0,0"
             inkscape:connector-curvature="0" /></g><path
           id="path32"
           style="fill:#ffffff;fill-opacity:1;fill-rule:nonzero;stroke:none"
           d="m 451.189,320.976 4.333,0 0,-55.509 -4.333,0 0,55.509 z"
           inkscape:connector-curvature="0" /><g
           transform="translate(471.4199,266.5808)"
           id="g34"><path
             id="path36"
             style="fill:#ffffff;fill-opacity:1;fill-rule:nonzero;stroke:none"
             d="m 0,0 c -2.791,0.975 -4.948,2.264 -6.471,3.863 l 1.699,3.339 c 1.483,-1.484 3.454,-2.684 5.914,-3.6 2.46,-0.918 4.996,-1.377 7.612,-1.377 3.67,0 6.423,0.672 8.257,2.02 1.834,1.347 2.752,3.094 2.752,5.24 0,1.64 -0.498,2.948 -1.492,3.924 -0.997,0.975 -2.217,1.728 -3.66,2.254 -1.446,0.528 -3.456,1.103 -6.033,1.729 -3.084,0.779 -5.544,1.531 -7.378,2.254 -1.834,0.721 -3.406,1.824 -4.714,3.308 -1.308,1.483 -1.961,3.493 -1.961,6.031 0,2.069 0.546,3.953 1.64,5.651 1.092,1.697 2.771,3.055 5.035,4.071 2.263,1.013 5.074,1.522 8.433,1.522 2.343,0 4.635,-0.323 6.88,-0.966 2.245,-0.645 4.187,-1.533 5.827,-2.665 l -1.464,-3.454 c -1.719,1.13 -3.554,1.979 -5.505,2.546 -1.953,0.566 -3.865,0.849 -5.738,0.849 -3.593,0 -6.295,-0.693 -8.111,-2.079 -1.814,-1.386 -2.721,-3.172 -2.721,-5.357 0,-1.64 0.496,-2.958 1.492,-3.953 0.996,-0.996 2.243,-1.757 3.748,-2.284 1.501,-0.526 3.521,-1.102 6.06,-1.728 3.005,-0.741 5.435,-1.473 7.291,-2.196 1.853,-0.721 3.425,-1.815 4.713,-3.279 1.29,-1.464 1.933,-3.445 1.933,-5.942 0,-2.07 -0.557,-3.954 -1.67,-5.652 C 21.257,2.371 19.549,1.024 17.244,0.028 14.94,-0.966 12.112,-1.464 8.754,-1.464 5.709,-1.464 2.79,-0.977 0,0"
             inkscape:connector-curvature="0" /></g><g
           transform="translate(440.2051,307.0549)"
           id="g38"><path
             id="path40"
             style="fill:#ffffff;fill-opacity:1;fill-rule:nonzero;stroke:none"
             d="m 0,0 c 0,0 -1.634,6.431 2.64,10.173 4.273,3.743 9.898,2.872 9.898,2.872 L 7.588,7.81 5.864,9.454 6.666,6.835 4.082,4.072 2.401,5.834 2.982,3.215 0,0 Z"
             inkscape:connector-curvature="0" /></g><g
           transform="translate(465.5811,339.5451)"
           id="g42"><path
             id="path44"
             style="fill:#ffffff;fill-opacity:1;fill-rule:nonzero;stroke:none"
             d="M 0,0 C 0,0 -7.73,0.761 -10.687,-5.166 -13.643,-11.091 -11,-17.782 -11,-17.782 l 4.438,7.037 -2.362,1.786 3.189,-0.476 2.351,3.679 -2.482,1.712 3.124,-0.207 L 0,0 Z"
             inkscape:connector-curvature="0" /></g><g
           transform="translate(465.7148,322.0525)"
           id="g46"><path
             id="path48"
             style="fill:#ffffff;fill-opacity:1;fill-rule:nonzero;stroke:none"
             d="M 0,0 1.166,0.095 1.07,3.109 2.758,0.472 10.997,0.985 c 0,0 -3.977,6.673 -10.501,5.534 C -6.027,5.379 -9.843,-0.718 -9.843,-0.718 L -1.545,-0.113 0,0 Z"
             inkscape:connector-curvature="0" /></g><g
           transform="translate(434.334,325.0222)"
           id="g50"><path
             id="path52"
             style="fill:#ffffff;fill-opacity:1;fill-rule:nonzero;stroke:none"
             d="M 0,0 C 0,0 5.032,5.118 10.89,3.264 16.747,1.41 19.096,-4.28 19.096,-4.28 L 6.056,-1.492 6.742,1.051 4.646,-0.956 0,0 Z"
             inkscape:connector-curvature="0" /></g><g
           transform="translate(470.1934,307.2009)"
           id="g54"><path
             id="path56"
             style="fill:#ffffff;fill-opacity:1;fill-rule:nonzero;stroke:none"
             d="m 0,0 c 0,0 1.017,6.557 -3.592,9.877 -4.609,3.32 -10.126,1.92 -10.126,1.92 l 5.424,-4.742 1.56,1.8 L -7.284,6.172 -4.45,3.667 -2.943,5.58 -3.273,2.917 0,0 Z"
             inkscape:connector-curvature="0" /></g><g
           transform="translate(453.8584,321.8132)"
           id="g58"><path
             id="path60"
             style="fill:#ffffff;fill-opacity:1;fill-rule:nonzero;stroke:none"
             d="M 0,0 C 0.834,-1.439 0.344,-3.283 -1.097,-4.117 -2.536,-4.951 -4.379,-4.459 -5.213,-3.02 -6.047,-1.581 -5.556,0.262 -4.116,1.096 -2.677,1.93 -0.834,1.439 0,0"
             inkscape:connector-curvature="0" /></g><g
           transform="translate(453.8584,321.8132)"
           id="g62"><path
             id="path64"
             style="fill:none;stroke:#ffffff;stroke-width:0.259;stroke-linecap:butt;stroke-linejoin:miter;stroke-miterlimit:10;stroke-dasharray:none;stroke-opacity:1"
             d="M 0,0 C 0.834,-1.439 0.344,-3.283 -1.097,-4.117 -2.536,-4.951 -4.379,-4.459 -5.213,-3.02 -6.047,-1.581 -5.556,0.262 -4.116,1.096 -2.677,1.93 -0.834,1.439 0,0 Z"
             inkscape:connector-curvature="0" /></g><g
           transform="translate(458.6689,321.4431)"
           id="g66"><path
             id="path68"
             style="fill:#ffffff;fill-opacity:1;fill-rule:nonzero;stroke:none"
             d="M 0,0 C 0.834,-1.439 0.344,-3.282 -1.096,-4.116 -2.535,-4.95 -4.379,-4.459 -5.213,-3.02 -6.047,-1.581 -5.556,0.263 -4.116,1.097 -2.677,1.931 -0.834,1.44 0,0"
             inkscape:connector-curvature="0" /></g><g
           transform="translate(458.6689,321.4431)"
           id="g70"><path
             id="path72"
             style="fill:none;stroke:#ffffff;stroke-width:0.259;stroke-linecap:butt;stroke-linejoin:miter;stroke-miterlimit:10;stroke-dasharray:none;stroke-opacity:1"
             d="M 0,0 C 0.834,-1.439 0.344,-3.282 -1.096,-4.116 -2.535,-4.95 -4.379,-4.459 -5.213,-3.02 -6.047,-1.581 -5.556,0.263 -4.116,1.097 -2.677,1.931 -0.834,1.44 0,0 Z"
             inkscape:connector-curvature="0" /></g></g></g></g></svg>